<?xml version="1.0" encoding="utf-8"?>
<!-- Generator: Adobe Illustrator 18.0.0, SVG Export Plug-In . SVG Version: 6.00 Build 0)  -->
<!DOCTYPE svg PUBLIC "-//W3C//DTD SVG 1.1//EN" "http://www.w3.org/Graphics/SVG/1.1/DTD/svg11.dtd">
<svg version="1.1" id="Layer_1" xmlns="http://www.w3.org/2000/svg" xmlns:xlink="http://www.w3.org/1999/xlink" x="0px" y="0px"
	 viewBox="0 0 250 250" enable-background="new 0 0 250 250" xml:space="preserve">
<path id="XMLID_1_" fill-rule="evenodd" clip-rule="evenodd" fill="#FFFFFF" d="M95.5,181.3c0-17.7-0.1-35.4,0.1-53.1
	c0-3-0.8-3.9-3.8-3.8c-5.5,0.2-11,0-16.6,0.1c-2.2,0.1-3.1-0.6-3-2.9c0.1-11,0.1-22.1,0-33.1c0-2.1,0.6-2.8,2.8-2.8
	c5.6,0.1,11.3-0.2,16.9,0.1c3.3,0.2,3.9-1,3.9-4c-0.2-8.4-0.2-16.8,0-25.2c0.2-10.3,3-19.9,9.1-28.2c7.7-10.6,18.7-15.4,31.4-16
	c13-0.6,26.1-0.3,39.2-0.4c1.8,0,2.4,0.6,2.4,2.4c-0.1,11.2-0.1,22.3,0,33.5c0,2-0.6,2.6-2.6,2.6c-6.3-0.1-12.6,0-18.8,0
	c-8.4,0-13.4,4.3-13.9,12.6c-0.4,6.6-0.1,13.3-0.3,20c-0.1,2.4,1.4,2.2,2.9,2.2c9.5,0,19.1,0.1,28.6-0.1c2.8,0,3.7,0.6,3.4,3.5
	C176,99.7,175,110.8,174,122c-0.2,2.5-1.4,3-3.6,3c-7.5-0.1-15.1-0.1-22.6,0c-5.4,0-4.9-0.8-4.9,4.7c0,34.7-0.1,69.3,0.1,104
	c0,3.7-0.9,4.6-4.5,4.5c-12.9-0.2-25.9-0.3-38.8,0c-3.6,0.1-4.2-1.2-4.2-4.4C95.6,216.2,95.5,198.8,95.5,181.3z"/>
</svg>
